<?xml version="1.0" standalone="no"?>
<!DOCTYPE svg PUBLIC "-//W3C//DTD SVG 20010904//EN"
 "http://www.w3.org/TR/2001/REC-SVG-20010904/DTD/svg10.dtd">
<svg version="1.0" xmlns="http://www.w3.org/2000/svg"
 width="48.000000pt" height="48.000000pt" viewBox="0 0 48.000000 48.000000"
 preserveAspectRatio="xMidYMid meet">

<g transform="translate(0.000000,48.000000) scale(0.100000,-0.100000)"
fill="#d6d6d6" stroke="none">
<path d="M100 345 l-105 -106 105 -99 c58 -55 111 -99 118 -100 8 0 12 16 12
50 l0 50 66 0 c82 0 100 -10 125 -67 14 -33 23 -43 35 -39 9 3 18 6 20 6 9 0
3 116 -8 154 -24 80 -118 146 -206 146 -30 0 -31 1 -34 52 -2 28 -8 53 -13 55
-6 2 -57 -44 -115 -102z"/>
</g>
</svg>
