<?xml version="1.0" encoding="UTF-8"?>
<svg version="1.1" xmlns="http://www.w3.org/2000/svg" width="512" height="512">
<path d="M0 0 C0.8772876 0.00087616 1.7545752 0.00175232 2.65844727 0.00265503 C17.28442822 0.05065753 31.34801777 0.97290919 45.625 4.375 C46.60210937 4.60574219 47.57921875 4.83648437 48.5859375 5.07421875 C83.64775505 13.68030124 114.7394278 31.37470728 140.625 56.375 C141.6077632 57.29460193 142.5908395 58.21386937 143.57421875 59.1328125 C177.33994112 91.20168158 199.55809918 140.82230975 200.91349792 187.28689575 C200.99480742 191.44160445 201.01018482 195.59459388 201 199.75 C200.99912384 200.6272876 200.99824768 201.5045752 200.99734497 202.40844727 C200.94935232 217.03142497 200.03754946 231.10255694 196.625 245.375 C196.38894043 246.36274414 196.15288086 247.35048828 195.90966797 248.36816406 C183.27513724 299.18325284 151.16785741 343.67552374 106.5625 371.1875 C74.18459377 390.60801256 39.06612836 400.83868509 1.25 400.75 C0.37370941 400.74945618 -0.50258118 400.74891235 -1.40542603 400.74835205 C-16.02640523 400.70678637 -30.09725518 399.74261025 -44.375 396.375 C-45.28685059 396.16069336 -46.19870117 395.94638672 -47.13818359 395.72558594 C-60.09035764 392.56404976 -72.27901914 387.94086542 -84.375 382.375 C-85.40850586 381.90755371 -85.40850586 381.90755371 -86.46289062 381.43066406 C-101.61539793 374.51321507 -115.76917861 365.26285989 -128.375 354.375 C-129.15488281 353.7046875 -129.93476563 353.034375 -130.73828125 352.34375 C-133.32759175 350.06416563 -135.85823744 347.7344649 -138.375 345.375 C-139.11556641 344.68543213 -139.11556641 344.68543213 -139.87109375 343.98193359 C-174.17266026 311.78679121 -197.69106994 263.03273672 -199.59423828 215.83740234 C-199.7385133 210.89149308 -199.76212679 205.94772945 -199.75 201 C-199.74912384 200.1227124 -199.74824768 199.2454248 -199.74734497 198.34155273 C-199.69935232 183.71857503 -198.78754946 169.64744306 -195.375 155.375 C-195.13894043 154.38725586 -194.90288086 153.39951172 -194.65966797 152.38183594 C-182.02513724 101.56674716 -149.91785741 57.07447626 -105.3125 29.5625 C-72.93649189 10.14312595 -37.81480099 -0.09268334 0 0 Z " fill="#FCA313" transform="translate(255.375,55.625)"/>
<path d="M0 0 C2.75746999 3.30538577 5.02895473 6.58942457 7.1015625 10.359375 C7.9522229 11.89549438 7.9522229 11.89549438 8.82006836 13.46264648 C9.4156958 14.54747314 10.01132324 15.6322998 10.625 16.75 C14.65708274 24.02314293 18.69013149 31.28750712 22.9375 38.4375 C27.07341637 45.40755586 31.1412128 52.41501381 35.1875 59.4375 C35.82550537 60.54472412 36.46351074 61.65194824 37.12084961 62.79272461 C38.42889477 65.06337068 39.73675448 67.33412358 41.04443359 69.60498047 C44.19332054 75.0716998 47.34683264 80.53574887 50.5 86 C51.7500235 88.16665311 53.00002347 90.33331979 54.25 92.5 C55.178125 94.10875 55.178125 94.10875 56.125 95.75 C61.75 105.5 61.75 105.5 63.62548828 108.75097656 C64.87371034 110.91447476 66.12208239 113.07788643 67.37060547 115.24121094 C70.52405256 120.70565017 73.67476096 126.17163645 76.8203125 131.640625 C83.20506581 142.73565668 89.63147348 153.80266565 96.15673828 164.81567383 C105.29646906 180.24368469 114.31802285 195.73276674 123.10986328 211.36181641 C127.54079437 219.22400913 132.07256788 227.02424881 136.63110352 234.81298828 C142.83827193 245.42035893 148.97441662 256.06824478 155.10888672 266.71777344 C158.23680146 272.14659938 161.36853731 277.57322007 164.5 283 C168.26363919 289.52233275 172.02644622 296.04513762 175.78515625 302.5703125 C176.41035156 303.65497803 177.03554688 304.73964355 177.6796875 305.85717773 C178.9243716 308.01745998 180.16788195 310.17841898 181.41015625 312.34008789 C184.59529169 317.87316414 187.81465262 323.38305586 191.08984375 328.86328125 C192.07392212 330.5191626 192.07392212 330.5191626 193.07788086 332.20849609 C194.33444292 334.31941822 195.59925601 336.42545628 196.87329102 338.52587891 C197.43072998 339.4647998 197.98816895 340.4037207 198.5625 341.37109375 C199.05878906 342.19536865 199.55507813 343.01964355 200.06640625 343.86889648 C201 346 201 346 200 349 C197.74242387 350.37404431 195.56146486 351.5483354 193.1875 352.6875 C192.47537354 353.03345215 191.76324707 353.3794043 191.02954102 353.73583984 C174.84578213 361.4603429 158.50956252 367.10512528 141 371 C140.23445801 371.17934082 139.46891602 371.35868164 138.68017578 371.54345703 C112.74957299 377.4021326 81.69628965 376.0608373 56 370 C55.08814941 369.78569336 54.17629883 369.57138672 53.23681641 369.35058594 C40.28464236 366.18904976 28.09598086 361.56586542 16 356 C14.96649414 355.53255371 14.96649414 355.53255371 13.91210938 355.05566406 C-1.24039793 348.13821507 -15.39417861 338.88785989 -28 328 C-28.77988281 327.3296875 -29.55976562 326.659375 -30.36328125 325.96875 C-32.95259175 323.68916563 -35.48323744 321.3594649 -38 319 C-38.74056641 318.31043213 -38.74056641 318.31043213 -39.49609375 317.60693359 C-73.79766026 285.41179121 -97.31606994 236.65773672 -99.21923828 189.46240234 C-99.3635133 184.51649308 -99.38712679 179.57272945 -99.375 174.625 C-99.37412384 173.7477124 -99.37324768 172.8704248 -99.37234497 171.96655273 C-99.32435232 157.34357503 -98.41254946 143.27244306 -95 129 C-94.76394043 128.01225586 -94.52788086 127.02451172 -94.28466797 126.00683594 C-80.94302397 72.34779321 -46.80354044 28.70518249 0 0 Z " fill="#AF2E78" transform="translate(155,82)"/>
<path d="M0 0 C0.97710937 0.23074219 1.95421875 0.46148437 2.9609375 0.69921875 C20.63817965 5.03817819 40.15026519 11.17945945 55 22 C53.62551133 25.63632623 51.99565142 28.97064121 50.09375 32.359375 C49.23342163 33.89549438 49.23342163 33.89549438 48.35571289 35.46264648 C47.74332764 36.54747314 47.13094238 37.6322998 46.5 38.75 C45.86634521 39.87672119 45.23269043 41.00344238 44.57983398 42.16430664 C40.74999436 48.95517743 36.86664399 55.70984746 32.8894043 62.4152832 C29.14695337 68.72724525 25.47596521 75.07941601 21.8125 81.4375 C20.85549194 83.09833618 20.85549194 83.09833618 19.87915039 84.79272461 C18.57110523 87.06337068 17.26324552 89.33412358 15.95556641 91.60498047 C12.80667946 97.0716998 9.65316736 102.53574887 6.5 108 C5.2499765 110.16665311 3.99997653 112.33331979 2.75 114.5 C-4.75 127.5 -4.75 127.5 -6.62573242 130.7512207 C-7.8733474 132.91378583 -9.12090616 135.07638339 -10.3684082 137.23901367 C-13.52943449 142.71870371 -16.69149309 148.19779358 -19.85546875 153.67578125 C-21.13281815 155.88801757 -22.41016195 158.10025712 -23.6875 160.3125 C-24.30455811 161.38048828 -24.92161621 162.44847656 -25.55737305 163.54882812 C-28.56898613 168.76613528 -31.56759996 173.99017593 -34.5390625 179.23046875 C-35.09247314 180.2052417 -35.64588379 181.18001465 -36.21606445 182.18432617 C-37.25395526 184.01488048 -38.28910277 185.84699386 -39.32104492 187.6809082 C-39.77842041 188.4874585 -40.2357959 189.29400879 -40.70703125 190.125 C-41.1038208 190.82882813 -41.50061035 191.53265625 -41.90942383 192.2578125 C-43 194 -43 194 -45 196 C-49.70298121 189.23385809 -53.77769821 182.21427503 -57.75 175 C-61.74175824 167.81107379 -65.73998644 160.63363437 -69.9375 153.5625 C-74.07317969 146.59230165 -78.14121067 139.58498988 -82.1875 132.5625 C-82.82550537 131.45527588 -83.46351074 130.34805176 -84.12084961 129.20727539 C-85.42889477 126.93662932 -86.73675448 124.66587642 -88.04443359 122.39501953 C-91.19332054 116.9283002 -94.34683264 111.46425113 -97.5 106 C-98.7500235 103.83334689 -100.00002347 101.66668021 -101.25 99.5 C-101.86875 98.4275 -102.4875 97.355 -103.125 96.25 C-108.75 86.5 -108.75 86.5 -110.6262207 83.24780273 C-111.8720577 81.08840605 -113.11798818 78.92906331 -114.36401367 76.76977539 C-117.55348953 71.24232403 -120.74116885 65.71384879 -123.92578125 60.18359375 C-124.57160156 59.06283447 -125.21742188 57.9420752 -125.8828125 56.78735352 C-127.15350827 54.58148096 -128.42306914 52.3749542 -129.69140625 50.16772461 C-132.48426513 45.31640043 -135.29625036 40.48170567 -138.19921875 35.6953125 C-138.67705811 34.90326416 -139.15489746 34.11121582 -139.6472168 33.29516602 C-140.52122453 31.85268258 -141.40364765 30.41524958 -142.29614258 28.98413086 C-143.27455679 27.36697437 -144.14876684 25.68756973 -145 24 C-143.79852806 20.39558419 -142.51665452 19.9500676 -139.24194336 18.29833984 C-138.56397705 17.9730127 -137.88601074 17.64768555 -137.1875 17.3125 C-136.47537354 16.96654785 -135.76324707 16.6205957 -135.02954102 16.26416016 C-118.84578213 8.5396571 -102.50956252 2.89487472 -85 -1 C-83.85168701 -1.26901123 -83.85168701 -1.26901123 -82.68017578 -1.54345703 C-56.78295214 -7.39459103 -25.65598628 -6.11361657 0 0 Z " fill="#FEE403" transform="translate(301,60)"/>
<path d="M0 0 C65.67 0 131.34 0 199 0 C199 23.38254416 199 23.38254416 197.4375 32.25 C197.26041504 33.28882324 197.08333008 34.32764648 196.90087891 35.39794922 C187.46680979 87.6124086 157.58293372 134.64485097 114 165 C109.40345995 168.11402551 104.73248897 171.09750676 100 174 C97.24253001 170.69461423 94.97104527 167.41057543 92.8984375 163.640625 C92.0477771 162.10450562 92.0477771 162.10450562 91.17993164 160.53735352 C90.5843042 159.45252686 89.98867676 158.3677002 89.375 157.25 C85.34291726 149.97685707 81.30986851 142.71249288 77.0625 135.5625 C72.92658363 128.59244414 68.8587872 121.58498619 64.8125 114.5625 C64.17449463 113.45527588 63.53648926 112.34805176 62.87915039 111.20727539 C61.57110523 108.93662932 60.26324552 106.66587642 58.95556641 104.39501953 C55.80667946 98.9283002 52.65316736 93.46425113 49.5 88 C48.2499765 85.83334689 46.99997653 83.66668021 45.75 81.5 C45.13125 80.4275 44.5125 79.355 43.875 78.25 C42 75 40.125 71.75 38.25 68.5 C37.6310083 67.42709717 37.0120166 66.35419434 36.37426758 65.2487793 C35.1266526 63.08621417 33.87909384 60.92361661 32.6315918 58.76098633 C29.47056551 53.28129629 26.30850691 47.80220642 23.14453125 42.32421875 C20.02584519 36.92434847 16.91141972 31.52203748 13.79882812 26.11865234 C12.00000144 23.0000025 10.19550741 19.88467938 8.390625 16.76953125 C7.28104096 14.84647477 6.17165566 12.92330359 5.0625 11 C4.54792236 10.11530029 4.03334473 9.23060059 3.50317383 8.3190918 C3.03935303 7.5125415 2.57553223 6.70599121 2.09765625 5.875 C1.48676147 4.81925781 1.48676147 4.81925781 0.86352539 3.7421875 C0 2 0 2 0 0 Z " fill="#DC3242" transform="translate(257,256)"/>
<path d="M0 0 C2.75746999 3.30538577 5.02895473 6.58942457 7.1015625 10.359375 C7.9522229 11.89549438 7.9522229 11.89549438 8.82006836 13.46264648 C9.4156958 14.54747314 10.01132324 15.6322998 10.625 16.75 C14.65708274 24.02314293 18.69013149 31.28750712 22.9375 38.4375 C27.07341637 45.40755586 31.1412128 52.41501381 35.1875 59.4375 C35.82550537 60.54472412 36.46351074 61.65194824 37.12084961 62.79272461 C38.42889477 65.06337068 39.73675448 67.33412358 41.04443359 69.60498047 C44.19332054 75.0716998 47.34683264 80.53574887 50.5 86 C51.7500235 88.16665311 53.00002347 90.33331979 54.25 92.5 C55.178125 94.10875 55.178125 94.10875 56.125 95.75 C61.75 105.5 61.75 105.5 63.62548828 108.75097656 C64.87371034 110.91447476 66.12208239 113.07788643 67.37060547 115.24121094 C70.52405256 120.70565017 73.67476096 126.17163645 76.8203125 131.640625 C83.51761651 143.27765088 90.25306717 154.88760208 97.14111328 166.41308594 C97.65013184 167.26805664 98.15915039 168.12302734 98.68359375 169.00390625 C99.13275146 169.75486572 99.58190918 170.5058252 100.04467773 171.27954102 C101 173 101 173 101 174 C35 174 -31 174 -99 174 C-99 150.61745584 -99 150.61745584 -97.4375 141.75 C-97.26041504 140.71117676 -97.08333008 139.67235352 -96.90087891 138.60205078 C-87.46680979 86.3875914 -57.58293372 39.35514903 -14 9 C-9.40345995 5.88597449 -4.73248897 2.90249324 0 0 Z " fill="#01AE5C" transform="translate(155,82)"/>
<path d="M0 0 C65.67 0 131.34 0 199 0 C197.53195771 4.40412687 196.32284118 7.47882978 194.05078125 11.359375 C193.4578125 12.37902344 192.86484375 13.39867187 192.25390625 14.44921875 C191.61324219 15.53847656 190.97257813 16.62773437 190.3125 17.75 C189.63743361 18.90720972 188.96296538 20.06476857 188.2890625 21.22265625 C186.88984195 23.62570582 185.48807065 26.0272392 184.08447266 28.42773438 C180.86550635 33.93786812 177.68480155 39.47007617 174.5 45 C173.25017876 47.16676979 172.0001782 49.33343615 170.75 51.5 C170.13125 52.5725 169.5125 53.645 168.875 54.75 C167 58 165.125 61.25 163.25 64.5 C162.63116943 65.57266113 162.01233887 66.64532227 161.37475586 67.75048828 C160.12564482 69.91557071 158.87645871 72.08060982 157.62719727 74.24560547 C154.48797691 79.68615706 151.35009437 85.12747216 148.21484375 90.5703125 C142.19252675 101.02206192 136.15331935 111.46300293 130.0625 121.875 C124.170832 131.94828653 118.36644069 142.06965614 112.59204102 152.21044922 C108.43925039 159.50037044 104.24201526 166.76164712 100 174 C85.15811057 165.88373678 72.14762654 155.73218104 60 144 C59.0172368 143.08039807 58.0341605 142.16113063 57.05078125 141.2421875 C24.58902469 110.41175509 3.8552548 64.33543023 0 20 C0 13.4 0 6.8 0 0 Z " fill="#7842A3" transform="translate(56,256)"/>
<path d="M0 0 C0 65.67 0 131.34 0 199 C-2.81219427 196.18780573 -4.33343385 193.92364493 -6.265625 190.49609375 C-6.90056885 189.37638184 -7.5355127 188.25666992 -8.18969727 187.10302734 C-8.52494415 186.5065741 -8.86019104 185.91012085 -9.20559692 185.29559326 C-10.62992079 182.76158447 -12.06489886 180.23366239 -13.4990387 177.7052002 C-14.24053345 176.39750414 -14.98144351 175.08947639 -15.7217865 173.78112793 C-19.30012854 167.45870435 -22.92620131 161.16425348 -26.5625 154.875 C-27.80339067 152.72656553 -29.04427608 150.57812803 -30.28515625 148.4296875 C-30.89762207 147.36975586 -31.51008789 146.30982422 -32.14111328 145.21777344 C-35.26324605 139.81329355 -38.38141204 134.40652588 -41.5 129 C-42.74998122 126.8333225 -43.99998121 124.66665583 -45.25 122.5 C-67.75 83.5 -67.75 83.5 -69.62719727 80.24609375 C-70.86976019 78.0923828 -72.11243489 75.93873633 -73.35522461 73.78515625 C-76.25314623 68.76315738 -79.15003349 63.74057193 -82.04275513 58.71557617 C-83.05947198 56.94954478 -84.07655658 55.18372569 -85.09375 53.41796875 C-86.36400873 51.21265845 -87.63359018 49.00695784 -88.90234375 46.80078125 C-89.48242188 45.79402344 -90.0625 44.78726563 -90.66015625 43.75 C-91.48990967 42.30560547 -91.48990967 42.30560547 -92.33642578 40.83203125 C-93.46184744 38.91613879 -94.61757266 37.01777975 -95.80029297 35.13671875 C-96.35990723 34.24597656 -96.91952148 33.35523438 -97.49609375 32.4375 C-98.25490845 31.25994141 -98.25490845 31.25994141 -99.02905273 30.05859375 C-100 28 -100 28 -99 25 C-96.74242387 23.62595569 -94.56146486 22.4516646 -92.1875 21.3125 C-91.47537354 20.96654785 -90.76324707 20.6205957 -90.02954102 20.26416016 C-60.81762514 6.32132185 -32.51430369 0 0 0 Z " fill="#A0CE49" transform="translate(256,56)"/>
<path d="M0 0 C0.33 0 0.66 0 1 0 C1 66 1 132 1 200 C-22.30974088 200 -22.30974088 200 -31.4375 198.375 C-32.48115723 198.19678711 -33.52481445 198.01857422 -34.60009766 197.83496094 C-51.91338149 194.7281898 -68.04753643 189.35061003 -84 182 C-84.71462402 181.67290039 -85.42924805 181.34580078 -86.16552734 181.00878906 C-94.58803905 177.11242096 -94.58803905 177.11242096 -98 175 C-99 172 -99 172 -97.97460938 169.68530273 C-97.43642578 168.77723877 -96.89824219 167.8691748 -96.34375 166.93359375 C-95.74111328 165.90427734 -95.13847656 164.87496094 -94.51757812 163.81445312 C-93.85177734 162.70005859 -93.18597656 161.58566406 -92.5 160.4375 C-91.81077106 159.26691003 -91.12263643 158.09567511 -90.43554688 156.92382812 C-89.00554538 154.48689 -87.57084656 152.05281157 -86.1328125 149.62060547 C-82.87755925 144.1060462 -79.69220639 138.55120286 -76.5 133 C-75.25033409 130.83314062 -74.00033285 128.6664746 -72.75 126.5 C-72.13125 125.4275 -71.5125 124.355 -70.875 123.25 C-64 111.33333333 -57.125 99.41666667 -50.25 87.5 C-49.63116943 86.42733887 -49.01233887 85.35467773 -48.37475586 84.24951172 C-47.12564482 82.08442929 -45.87645871 79.91939018 -44.62719727 77.75439453 C-41.48797691 72.31384294 -38.35009437 66.87252784 -35.21484375 61.4296875 C-33.95583049 59.24473328 -32.69671626 57.05983723 -31.4375 54.875 C-30.81979736 53.80314453 -30.20209473 52.73128906 -29.56567383 51.62695312 C-25.30104432 44.23470504 -20.99984152 36.86448765 -16.6875 29.5 C-10.97846667 19.74583243 -5.43118868 9.91129362 0 0 Z " fill="#A13CA1" transform="translate(255,256)"/>
<path d="M0 0 C3.60810437 1.35643021 6.86336399 2.97293178 10.19140625 4.9140625 C11.71048584 5.7959021 11.71048584 5.7959021 13.26025391 6.69555664 C14.34999512 7.33227295 15.43973633 7.96898926 16.5625 8.625 C18.91451229 9.9923546 21.26788404 11.35736372 23.62109375 12.72265625 C24.22739624 13.0748674 24.83369873 13.42707855 25.45837402 13.78996277 C31.41022035 17.24513074 37.3874235 20.6551874 43.36746216 24.06124878 C53.63500399 29.91056169 63.86748132 35.81710449 74.06738281 41.78369141 C84.59111319 47.93792989 95.1539592 54.02379087 105.71777344 60.10888672 C112.21847963 63.85438435 118.71625032 67.60497265 125.21435547 71.35498047 C130.23653702 74.25294889 135.25927066 77.14994287 140.28442383 80.04275513 C142.05045522 81.05947198 143.81627431 82.07655658 145.58203125 83.09375 C147.78734155 84.36400873 149.99304216 85.63359018 152.19921875 86.90234375 C168.07191554 96.04794369 168.07191554 96.04794369 174 100 C108 100 42 100 -26 100 C-26 76.61745584 -26 76.61745584 -24.4375 67.75 C-24.26041504 66.71117676 -24.08333008 65.67235352 -23.90087891 64.60205078 C-19.85533761 42.21131469 -12.7304843 19.05866046 0 0 Z " fill="#019A84" transform="translate(82,156)"/>
<path d="M0 0 C65.67 0 131.34 0 199 0 C195.64157107 2.68674314 192.97511205 4.72011968 189.32421875 6.7421875 C187.97783325 7.49411377 187.97783325 7.49411377 186.60424805 8.26123047 C185.16045776 9.06004639 185.16045776 9.06004639 183.6875 9.875 C175.4753591 14.46649632 167.30537799 19.11875178 159.1875 23.875 C147.58076114 30.66916553 135.93606804 37.39590022 124.28222656 44.10888672 C118.85340058 47.23680148 113.42680719 50.36858448 108 53.5 C105.83334417 54.75001879 103.6666775 56.00001878 101.5 57.25 C100.4275 57.86875 99.355 58.4875 98.25 59.125 C93.375 61.9375 93.375 61.9375 88.5 64.75 C86.8900415 65.6788501 86.8900415 65.6788501 85.24755859 66.62646484 C83.08909502 67.87169484 80.93056677 69.11681272 78.77197266 70.36181641 C73.22925259 73.55886337 67.68779992 76.75807595 62.1484375 79.9609375 C50.47076209 86.71039663 38.78143139 93.43300879 27 100 C8.43039322 84.34439305 1.95775624 42.51419681 0 20 C0 13.4 0 6.8 0 0 Z " fill="#2655AB" transform="translate(56,256)"/>
<path d="M0 0 C18.30285123 17.23869459 24.93894815 56.29790376 27 80 C27 86.6 27 93.2 27 100 C-38.67 100 -104.34 100 -172 100 C-168.44172277 97.15337822 -165.54117419 95.04284462 -161.640625 92.8984375 C-160.10450562 92.0477771 -160.10450562 92.0477771 -158.53735352 91.17993164 C-157.45252686 90.5843042 -156.3677002 89.98867676 -155.25 89.375 C-147.97685707 85.34291726 -140.71249288 81.30986851 -133.5625 77.0625 C-126.59244414 72.92658363 -119.58498619 68.8587872 -112.5625 64.8125 C-111.45527588 64.17449463 -110.34805176 63.53648926 -109.20727539 62.87915039 C-106.93662932 61.57110523 -104.66587642 60.26324552 -102.39501953 58.95556641 C-96.9283002 55.80667946 -91.46425113 52.65316736 -86 49.5 C-83.83334689 48.2499765 -81.66668021 46.99997653 -79.5 45.75 C-78.4275 45.13125 -77.355 44.5125 -76.25 43.875 C-73 42 -69.75 40.125 -66.5 38.25 C-65.42709717 37.6310083 -64.35419434 37.0120166 -63.2487793 36.37426758 C-61.08621417 35.1266526 -58.92361661 33.87909384 -56.76098633 32.6315918 C-51.28129629 29.47056551 -45.80220642 26.30850691 -40.32421875 23.14453125 C-26.90293385 15.39422564 -13.46499442 7.67413555 0 0 Z " fill="#F97826" transform="translate(429,156)"/>
<path d="M0 0 C65.67 0 131.34 0 199 0 C199 23.38254416 199 23.38254416 197.4375 32.25 C197.26041504 33.28882324 197.08333008 34.32764648 196.90087891 35.39794922 C192.85533761 57.78868531 185.7304843 80.94133954 173 100 C160.98976401 94.37548808 149.67234717 87.63711276 138.25585938 80.91015625 C132.85545575 77.74183307 127.42721812 74.62209188 122 71.5 C113.69157556 66.7157826 105.40006181 61.90417444 97.125 57.0625 C88.48723322 52.01152977 79.81680271 47.01975596 71.125 42.0625 C52.30231269 31.3268627 33.53166908 20.50299817 14.82519531 9.56591797 C9.89749744 6.6852815 4.962195 3.82083284 0 1 C0 0.67 0 0.34 0 0 Z " fill="#F35442" transform="translate(257,256)"/>
</svg>
