<?xml version="1.0" encoding="UTF-8"?>
<svg version="1.1" xmlns="http://www.w3.org/2000/svg" width="512" height="512">
<path d="M0 0 C-0.69933906 4.42630454 -2.23957331 8.41690658 -3.875 12.5625 C-6.46512248 19.26926066 -8.48049443 25.96229001 -10 33 C-14.16849694 34.25941823 -18.33735494 35.32153059 -22.58984375 36.26171875 C-53.18048244 43.07408163 -80.85889951 57.05276984 -98.49853516 84.10205078 C-110.05348443 102.63743658 -114.30129132 122.34050164 -114 144 C-111.86190372 144.21775755 -111.86190372 144.21775755 -110.22619534 142.46949768 C-109.14688039 141.38546913 -109.14688039 141.38546913 -108.04576111 140.27954102 C-107.21986984 139.45495392 -106.39397858 138.63036682 -105.5430603 137.78079224 C-104.63544952 136.86441986 -103.72783875 135.94804749 -102.79272461 135.00390625 C-101.82898376 134.03796548 -100.86479561 133.07247082 -99.90019226 132.10739136 C-97.82049834 130.02475845 -95.74400715 127.93900098 -93.66990471 125.85079956 C-90.39380566 122.55249822 -87.11069165 119.26124116 -83.82655334 115.97094727 C-78.63557456 110.76857518 -73.44928893 105.56155305 -68.26500946 100.35250568 C-58.97478539 91.01797836 -49.67898105 81.68901601 -40.37797743 72.36522961 C-37.11076048 69.08957778 -33.84637352 65.81113827 -30.58419216 62.5304718 C-28.55891942 60.49459426 -26.53164861 58.46071521 -24.50386238 56.42734146 C-23.10800485 55.02632899 -21.71467925 53.62279536 -20.32141113 52.21920776 C-19.49833969 51.39462067 -18.67526825 50.57003357 -17.82725525 49.72045898 C-17.10808898 48.99777328 -16.38892271 48.27508759 -15.64796352 47.53050232 C-14 46 -14 46 -13 46 C-12.97812622 47.09948975 -12.97812622 47.09948975 -12.95581055 48.22119141 C-12.02208818 90.52574352 -2.73727561 127.973284 16 166 C16.33435059 166.68352539 16.66870117 167.36705078 17.01318359 168.07128906 C22.5854139 179.22777823 30.48776999 188.83238946 38.13769531 198.61035156 C39.72107871 200.64209732 41.28589846 202.68498756 42.8359375 204.7421875 C50.93482869 215.48219493 59.73749725 225.61498341 68.78515625 235.5625 C70.36636238 237.30266336 71.93537247 239.05394081 73.49609375 240.8125 C74.76646484 242.235625 74.76646484 242.235625 76.0625 243.6875 C76.81660156 244.53699219 77.57070312 245.38648438 78.34765625 246.26171875 C80.41473865 248.39577584 82.46841034 250.30868844 84.71484375 252.23828125 C90.43287904 257.16711378 95.64174967 262.59587085 100.93359375 267.97265625 C105.23452528 272.31541207 109.59916365 276.48489934 114.23583984 280.46728516 C120.41269717 285.83378257 125.97707979 291.86052989 131.2890625 298.0703125 C133.11799863 300.13308521 135.03580458 302.0659072 137 304 C140.88096374 307.82851829 144.46374517 311.85430551 148 316 C148.72526146 316.6925183 148.72526146 316.6925183 149.46517467 317.39902687 C153.46710533 321.46216729 154.6947018 324.37425559 154.7988739 330.05363464 C154.78508194 330.94005142 154.77128998 331.8264682 154.75708008 332.73974609 C154.77061523 334.16799965 154.77061523 334.16799965 154.78442383 335.62510681 C154.80734172 338.75845451 154.78846318 341.89008722 154.76953125 345.0234375 C154.77825026 347.21148923 154.78974205 349.3995315 154.80387878 351.58755493 C154.83425549 357.34143804 154.82984026 363.09476434 154.81726074 368.84869385 C154.80784383 375.82384916 154.83635312 382.79892835 154.86232281 389.77402687 C154.88225315 395.20468832 154.8956281 400.63506614 154.88813782 406.06576538 C154.88861366 407.5704261 154.88861366 407.5704261 154.88909912 409.10548401 C154.88960781 410.96209521 154.88649268 412.81871303 154.87876892 414.67530823 C154.8853105 419.56313647 155.20014402 424.20795558 156.02625751 429.03075981 C155.98217808 432.33659393 154.06927048 434.06670391 151.82003784 436.31292725 C151.19622223 436.88513 150.57240662 437.45733276 149.9296875 438.046875 C148.97982468 438.97551361 148.97982468 438.97551361 148.01077271 439.9229126 C145.98784379 441.89008135 143.93305126 443.81967324 141.875 445.75 C140.51335118 447.06144531 139.15394908 448.3752276 137.796875 449.69140625 C135.29340191 452.11343473 132.77773125 454.52103892 130.24560547 456.91308594 C126.86290584 460.11420967 123.5567343 463.38520567 120.32421875 466.73828125 C104.09721607 482.34563705 79.86875928 486.40825625 58.3125 486.3125 C56.99467529 486.30758545 55.67685059 486.3026709 54.3190918 486.29760742 C44.24520051 486.17696572 34.79102839 485.31826727 25 483 C24.25314941 482.83371094 23.50629883 482.66742188 22.73681641 482.49609375 C9.95411713 479.61818772 -1.9925021 475.19786827 -14 470 C-14.71333496 469.69755371 -15.42666992 469.39510742 -16.16162109 469.08349609 C-35.60116819 460.77454641 -53.50715326 449.15178996 -70 436 C-70.99 435.22140625 -71.98 434.4428125 -73 433.640625 C-78.94397442 428.87869095 -84.56967323 423.8151262 -90.14453125 418.6328125 C-92.66303899 416.31068635 -95.22307741 414.05461464 -97.8125 411.8125 C-101.19136733 408.82047973 -104.17078988 405.67792805 -107.078125 402.23046875 C-109.34817319 399.59592096 -111.73769856 397.0912456 -114.125 394.5625 C-137.01945715 369.84585526 -155.3048093 339.55369115 -167 308 C-167.44214844 306.81019531 -167.88429687 305.62039063 -168.33984375 304.39453125 C-177.18603434 279.3079178 -182.09776324 247.85763034 -174 222 C-173.70996094 221.04794678 -173.70996094 221.04794678 -173.4140625 220.07666016 C-167.86927502 202.32563912 -157.33369459 187.71102631 -143.29833984 175.5222168 C-141.60949733 173.89641085 -141.60949733 173.89641085 -142.1875 170.5625 C-142.57323034 168.19887011 -143.02894576 165.8568707 -143.50366211 163.50952148 C-145.14796753 154.83264827 -145.39909157 146.29536995 -145.375 137.5 C-145.37445618 136.75188049 -145.37391235 136.00376099 -145.37335205 135.23297119 C-145.33295996 123.12406964 -144.52370987 111.65869438 -141 100 C-140.79632813 99.31421875 -140.59265625 98.6284375 -140.3828125 97.921875 C-131.63232103 69.61781616 -111.59243359 44.28931812 -87 28 C-86.45085937 27.63358398 -85.90171875 27.26716797 -85.3359375 26.88964844 C-78.02915532 22.07716578 -70.48423636 18.12080662 -62.4375 14.6875 C-61.34199829 14.21751587 -61.34199829 14.21751587 -60.22436523 13.73803711 C-48.30438144 8.84962916 -35.8048166 6.17173042 -23.20996094 3.70751953 C-20.84155837 3.24344734 -18.47543906 2.7688062 -16.109375 2.29296875 C-14.59126761 1.99157346 -13.07304267 1.69076955 -11.5546875 1.390625 C-10.85366913 1.25005676 -10.15265076 1.10948853 -9.4303894 0.96466064 C-6.18869471 0.33518505 -3.32243744 0 0 0 Z M-126.01196289 159.33227539 C-127.12379425 160.39744969 -128.24620513 161.45169579 -129.37915039 162.49438477 C-135.88773192 168.04435261 -135.88773192 168.04435261 -139.40527344 175.43481445 C-138.9224523 177.88719257 -138.13128861 179.77389973 -137 182 C-136.69505615 182.7535376 -136.3901123 183.5070752 -136.07592773 184.28344727 C-135.09198142 186.67453453 -134.00689365 188.98803288 -132.875 191.3125 C-132.47394043 192.14281738 -132.07288086 192.97313477 -131.65966797 193.82861328 C-125.71162256 205.89598903 -117.89147809 216.00214679 -109 226 C-108.42894531 226.65613281 -107.85789062 227.31226563 -107.26953125 227.98828125 C-87.15066205 249.6587342 -55.60689985 262.47952352 -26.46484375 263.921875 C-25.65144531 263.94765625 -24.83804688 263.9734375 -24 264 C-23.86464844 264.54527344 -23.72929687 265.09054687 -23.58984375 265.65234375 C-20.49484267 276.49411401 -13.6701879 283.46802029 -4 289 C7.68388862 294.51506364 19.79516255 296.07515769 32.34765625 292.09375 C43.56566545 287.46776682 52.58250968 279.5066639 57.9375 268.5625 C62.60830435 257.05518962 63.38982747 244.92765822 59.01171875 233.16015625 C54.07273172 222.61475151 44.88439603 212.48742643 34 208 C21.34260754 204.12626402 9.91597254 203.91034332 -2.21484375 209.48828125 C-13.18941212 215.44502453 -20.43317779 223.0946551 -24 235 C-49.26910243 230.89413942 -69.76306788 223.47937287 -88 205 C-88.73863281 204.26007813 -89.47726563 203.52015625 -90.23828125 202.7578125 C-103.98658156 188.1819446 -111.06891998 169.32781011 -115 150 C-118.25339814 150 -123.6654212 157.06347742 -126.01196289 159.33227539 Z " fill="#000000" transform="translate(177,26)"/>
<path d="M0 0 C31.38946751 -0.04567187 62.7789262 -0.08104342 94.16841908 -0.10213066 C97.87822996 -0.10463193 101.58804078 -0.10722059 105.29785156 -0.10986328 C106.0363763 -0.1103879 106.77490104 -0.11091252 107.53580531 -0.11145304 C119.47784969 -0.1201444 131.41987472 -0.13590735 143.36190763 -0.15430559 C155.62485894 -0.17304002 167.88780015 -0.1841242 180.15076518 -0.18817699 C187.71142455 -0.19091471 195.27202921 -0.19954673 202.83267173 -0.21583293 C208.64017276 -0.22770188 214.44763911 -0.22890242 220.25514984 -0.22621536 C222.63024735 -0.22676395 225.00534701 -0.23072036 227.38043213 -0.23841095 C264.86042641 -0.35378257 264.86042641 -0.35378257 280 14 C288.20206616 23.08211618 292.310497 33.26008766 292.26742554 45.4282074 C292.27195665 46.37013461 292.27648776 47.31206182 292.28115618 48.28253227 C292.29380411 51.43506831 292.29217951 54.58743166 292.29052734 57.73999023 C292.29651258 60.00222495 292.30331811 62.26445763 292.31088257 64.52668762 C292.32855612 70.67178252 292.33323869 76.81682172 292.33451414 82.96193957 C292.33593621 86.80510267 292.340207 90.64825163 292.34550858 94.49141121 C292.36306228 107.21829636 292.37234825 119.94513518 292.37084763 132.67202949 C292.37076772 133.35767919 292.3706878 134.04332889 292.37060547 134.74975586 C292.37052371 135.43625082 292.37044195 136.12274578 292.37035771 136.83004362 C292.36954622 147.93554614 292.38864937 159.04091257 292.4168822 170.14637577 C292.44569252 181.56995064 292.45905262 192.99343179 292.45769465 204.41704899 C292.45718611 210.82209014 292.46280905 217.22697747 292.48405075 223.63198662 C292.50350851 229.66409057 292.50350603 235.69589526 292.48901749 241.72801018 C292.48693722 243.9325352 292.49158318 246.13707931 292.5037384 248.34157181 C292.58255678 263.63670881 291.59257152 277.44238685 284.3125 291.25 C283.9714624 291.91128906 283.6304248 292.57257813 283.27905273 293.25390625 C273.25013817 312.005496 256.8120247 323.31594943 237.15625 330.08984375 C217.36610181 335.79665628 195.63251282 332.07662712 177.828125 322.328125 C159.89319723 311.83447643 147.63592158 294.66565695 141.47265625 274.9921875 C140.07783856 269.11320385 139.84427921 263.49029219 139.82641602 257.48144531 C139.819729 256.54078217 139.81304199 255.60011902 139.80615234 254.63095093 C139.79214072 252.59467085 139.78023442 250.55837542 139.77020454 248.52207184 C139.75372555 245.29271374 139.73048398 242.0634688 139.70530701 238.83416748 C139.63472835 229.65447683 139.57452415 220.47473999 139.52319336 211.29492188 C139.49128284 205.67286132 139.4499776 200.0509318 139.40299797 194.42897797 C139.38705111 192.29371256 139.37469607 190.15841705 139.36609077 188.02310944 C139.35384458 185.02731631 139.32965615 182.03182747 139.30297852 179.03613281 C139.30238937 178.16513947 139.30180023 177.29414612 139.30119324 176.39675903 C139.11566381 160.55792922 133.59349288 152.31612592 123 141 C121.96663741 139.87574444 120.93413121 138.75070131 119.90234375 137.625 C112.77466673 129.88250873 105.45610101 122.36201209 97.94921875 114.98608398 C94.00001359 111.0865276 90.26830788 107.08133499 86.64575195 102.87719727 C84.22696304 100.11824934 81.66657287 97.52048726 79.0625 94.9375 C78.58876953 94.45990234 78.11503906 93.98230469 77.62695312 93.49023438 C74.93435705 90.804809 72.16671561 88.25852245 69.28125 85.78125 C64.09400131 81.28382456 59.27962562 76.42536277 54.4375 71.5625 C53.53064453 70.65951172 52.62378906 69.75652344 51.68945312 68.82617188 C47.11591223 64.24599785 42.67406543 59.61376534 38.4597168 54.70043945 C36.58894057 52.52115255 34.63718094 50.42118404 32.6875 48.3125 C23.0937463 37.64736264 14.96320953 25.90437612 7 14 C6.61585938 13.42846191 6.23171875 12.85692383 5.8359375 12.26806641 C0 3.54302496 0 3.54302496 0 0 Z M203 151 C203 190.27 203 229.54 203 270 C212.57 270 222.14 270 232 270 C232 230.73 232 191.46 232 151 C222.43 151 212.86 151 203 151 Z " fill="#000000" transform="translate(220,180)"/>
<path d="M0 0 C1.38491861 0.65470043 2.7703186 1.30838376 4.15625 1.9609375 C19.70603502 9.39070064 34.2452223 18.64318096 48 29 C48.5770166 29.43280273 49.1540332 29.86560547 49.74853516 30.31152344 C57.61935769 36.25315898 64.9874325 42.58286519 72.16015625 49.34765625 C74.3524807 51.39523301 76.55963724 53.34717404 78.875 55.25 C81.93342713 57.82984684 84.48633345 60.71262347 87.0703125 63.76171875 C89.20876295 66.24214812 91.44635003 68.61206545 93.6875 71 C107.40897484 86.11441243 118.0176209 103.27445037 127.5625 121.25 C127.98031738 122.03608643 128.39813477 122.82217285 128.82861328 123.63208008 C130.93491717 127.67973635 132.70487593 131.60357885 134 136 C128.81592621 135.19410512 123.79154386 133.99787267 118.70703125 132.71875 C110.12144031 131.05410434 101.45293373 130.8504219 92.73066711 130.84178162 C91.65137772 130.83684364 90.57208833 130.83190566 89.4600932 130.82681805 C85.87354338 130.81156139 82.28701129 130.80311478 78.70043945 130.79467773 C76.11756741 130.78508989 73.5346969 130.77507929 70.951828 130.76467896 C65.40643862 130.74301294 59.86104679 130.72483284 54.31563759 130.70907402 C46.2980762 130.68628477 38.28054041 130.65815494 30.26300087 130.62875474 C17.25257508 130.58118925 4.24213877 130.53789545 -8.76831055 130.49731445 C-21.40080584 130.45790313 -34.03329182 130.41646356 -46.66577148 130.37231445 C-47.44547437 130.36959018 -48.22517725 130.36686591 -49.02850749 130.36405908 C-52.9403573 130.35037868 -56.85220697 130.33665859 -60.76405656 130.32291877 C-93.17601843 130.20912765 -125.58799969 130.10228023 -158 130 C-159.12416454 126.70676675 -160.23862816 123.41032495 -161.3515625 120.11328125 C-161.66552979 119.19389771 -161.97949707 118.27451416 -162.30297852 117.32727051 C-170.42045287 93.20298563 -174.42480116 64.75931676 -167 40 C-166.6596875 38.84113281 -166.319375 37.68226562 -165.96875 36.48828125 C-158.93251125 14.8803724 -145.29018154 -2.47968769 -125.1875 -13.3125 C-118.38544751 -16.54302625 -111.32102662 -18.33418881 -104 -20 C-103.23469971 -20.1757959 -102.46939941 -20.3515918 -101.6809082 -20.53271484 C-67.34626498 -26.51727974 -30.45457242 -14.86600613 0 0 Z " fill="#000000" transform="translate(363,21)"/>
<path d="M0 0 C4.2720404 3.30394809 6.1266929 6.37457819 6.87890625 11.828125 C6.85079543 16.73814836 6.14139268 21.03943108 2.87890625 24.828125 C-2.33723466 28.49384615 -6.83038777 29.538366 -13.12109375 28.828125 C-18.46849789 26.87426579 -21.57727518 23.91576213 -24.12109375 18.828125 C-24.74629451 13.22181657 -24.74437478 8.08607813 -21.50390625 3.3046875 C-15.77666541 -2.81084085 -7.34877813 -4.06009841 0 0 Z " fill="#000000" transform="translate(203.12109375,262.171875)"/>
</svg>
