<?xml version="1.0" encoding="UTF-8"?>
<svg version="1.1" xmlns="http://www.w3.org/2000/svg" width="512" height="512">
<path d="M0 0 C128.04 0 256.08 0 388 0 C388 11.25005294 388 11.25005294 387.61515236 15.90223122 C387.52930087 16.96425998 387.44344938 18.02628875 387.35499632 19.12050021 C387.25908686 20.25552426 387.16317739 21.39054832 387.06436157 22.55996704 C386.96368389 23.79045505 386.86300622 25.02094306 386.7592777 26.28871858 C386.48106791 29.67876997 386.19920754 33.06848076 385.91574335 36.45809436 C385.61007846 40.12399946 385.30917213 43.79029566 385.00764465 47.45654297 C384.41686962 54.63040709 383.82168637 61.80389889 383.22493459 68.97726806 C382.73955691 74.81296175 382.25585069 80.6487918 381.77332687 86.48472214 C381.70452029 87.31690677 381.6357137 88.14909139 381.56482207 89.00649374 C381.42502387 90.69740031 381.28523035 92.38830727 381.14544146 94.07921462 C379.83540778 109.92340478 378.52045829 125.76718397 377.20373897 141.61081974 C376.07629212 155.17824275 374.95269986 168.74598032 373.83203125 182.31396484 C372.52865344 198.0939736 371.22311674 213.87380112 369.91400087 229.65333498 C369.77410041 231.33968426 369.63420167 233.0260337 369.49430466 234.71238327 C369.42548332 235.5419433 369.35666199 236.37150333 369.28575516 237.22620154 C368.80310628 243.04563787 368.32194798 248.86519631 367.84135818 254.68480301 C367.25447664 261.7908859 366.66513417 268.89675985 366.07275797 276.00238688 C365.77110502 279.6214295 365.47047306 283.24054847 365.17279625 286.8599205 C360.86398967 339.20992494 360.86398967 339.20992494 343.296875 354.2421875 C334.68347097 360.83407834 325.79874228 362.30024413 315.20977783 362.26742554 C313.59536147 362.27422221 313.59536147 362.27422221 311.94833064 362.28115618 C308.34734586 362.29380108 304.74651231 362.29217972 301.14550781 362.29052734 C298.56136887 362.29651254 295.97723172 362.30331807 293.39309692 362.31088257 C287.10511517 362.32746826 280.81717092 362.33299102 274.52916911 362.33410732 C269.41548508 362.335059 264.30181337 362.33917528 259.18813324 362.34550858 C244.67609881 362.36311477 230.16409392 362.37234848 215.65204874 362.37084763 C214.47947016 362.37072776 214.47947016 362.37072776 213.28320312 362.37060547 C212.10918556 362.37048283 212.10918556 362.37048283 210.91145048 362.37035771 C198.23195073 362.3695451 185.55256986 362.38867795 172.87310448 362.4168822 C159.84038828 362.44564245 146.80772999 362.45942075 133.77498126 362.45769465 C126.46353556 362.45703181 119.15221446 362.46247756 111.84079742 362.48405075 C104.96248435 362.5042166 98.08443808 362.50355678 91.20611191 362.48901749 C88.68545777 362.48692838 86.16478718 362.49163629 83.64416122 362.5037384 C80.19518582 362.51922166 76.74711332 362.50986122 73.29815674 362.49447632 C72.30776248 362.50476344 71.31736823 362.51505057 70.29696202 362.52564943 C59.48984215 362.4195895 50.46248517 358.61232207 42 352 C41.38382813 351.52175781 40.76765625 351.04351562 40.1328125 350.55078125 C28.63075681 340.40341212 26.05004235 325.00998714 24.89355469 310.53320312 C24.79842464 309.40513906 24.7032946 308.27707499 24.60528183 307.11482716 C24.28825368 303.33743432 23.98009613 299.55937088 23.671875 295.78125 C23.44503829 293.0485775 23.21631153 290.31606395 22.9876709 287.58354187 C22.42933148 280.89713711 21.87757894 274.21020432 21.32800865 267.52307373 C20.68272067 259.67429347 20.03103273 251.82604863 19.37894583 243.97783077 C18.47687606 233.1197231 17.57651253 222.2614757 16.67999268 211.40290833 C14.74508364 187.9689722 12.7942248 164.53641171 10.83340621 141.10462964 C9.77803254 128.49133155 8.72602464 115.87775258 7.67447281 103.26413536 C7.51561227 101.35870701 7.35674667 99.45327907 7.19787598 97.54785156 C7.11956755 96.60864856 7.04125913 95.66944556 6.96057773 94.70178187 C6.40819938 88.07890105 5.85402224 81.45617211 5.29919434 74.83349609 C4.61954958 66.72022799 3.94291747 58.60671502 3.26999092 50.49288684 C2.92456622 46.32890188 2.577798 42.16504038 2.22740173 38.00147057 C1.90483727 34.16821722 1.58614019 30.33466206 1.27043009 26.50083828 C1.15561686 25.11474326 1.03942174 23.72876182 0.92166662 22.34291363 C0.76084198 20.44765647 0.60568764 18.55192077 0.45074463 16.65617371 C0.36308964 15.60485858 0.27543465 14.55354345 0.18512344 13.47037029 C-0.05408024 8.98619836 0 4.49054744 0 0 Z M93 35 C89.3372293 39.58746652 89.60342177 43.77341853 89.7351532 49.37579346 C89.74674459 50.3007818 89.75833598 51.22577013 89.77027863 52.17878842 C89.94862167 62.79714069 90.57599286 73.39022323 91.23754883 83.98730469 C91.37112075 86.20234153 91.50416661 88.41741014 91.63673401 90.63250732 C91.99436923 96.57834836 92.36015062 102.52365977 92.72821259 108.46886349 C93.03598044 113.4495233 93.34012678 118.430402 93.64445037 123.41127324 C94.32154867 134.48951598 95.00451984 145.56738359 95.69231776 156.64496693 C95.73334753 157.30578995 95.7743773 157.96661298 95.81665039 158.64746094 C95.8782729 159.63992486 95.8782729 159.63992486 95.94114032 160.65243855 C96.60883782 171.41118441 97.26410667 182.17064705 97.91381732 192.93049273 C98.58374357 204.02284683 99.26298531 215.11460197 99.95127314 226.20583272 C100.33648554 232.41557103 100.71797724 238.62548177 101.09006691 244.83602142 C101.43960878 250.66454219 101.80085357 256.49222185 102.17105675 262.31946564 C102.30466818 264.45369197 102.434146 266.58818183 102.55912781 268.72293091 C102.73071604 271.64251753 102.9173797 274.56077285 103.10774231 277.47918701 C103.15347706 278.31800124 103.19921181 279.15681547 103.24633247 280.02104831 C103.72297175 286.91905025 104.60836573 294.3102094 110.0625 299.0625 C114.48884111 301.7633183 118.97713969 301.89516322 124 301 C128.5225259 298.77985092 130.90244929 296.54870829 133 292 C133.40293304 288.86730459 133.33899459 285.77762037 133.2648468 282.62420654 C133.25325541 281.6992182 133.24166402 280.77422987 133.22972137 279.82121158 C133.05137833 269.20285931 132.42400714 258.60977677 131.76245117 248.01269531 C131.62887925 245.79765847 131.49583339 243.58258986 131.36326599 241.36749268 C131.00563077 235.42165164 130.63984938 229.47634023 130.27178741 223.53113651 C129.96401956 218.5504767 129.65987322 213.569598 129.35554963 208.58872676 C128.67845133 197.51048402 127.99548016 186.43261641 127.30768224 175.35503307 C127.26665247 174.69421005 127.2256227 174.03338702 127.18334961 173.35253906 C127.14226793 172.69089645 127.10118626 172.02925384 127.05885968 171.34756145 C126.39116218 160.58881559 125.73589333 149.82935295 125.08618268 139.06950727 C124.41625643 127.97715317 123.73701469 116.88539803 123.04872686 105.79416728 C122.66351446 99.58442897 122.28202276 93.37451823 121.90993309 87.16397858 C121.56039122 81.33545781 121.19914643 75.50777815 120.82894325 69.68053436 C120.69533182 67.54630803 120.565854 65.41181817 120.44087219 63.27706909 C120.26928396 60.35748247 120.0826203 57.43922715 119.89225769 54.52081299 C119.84652294 53.68199876 119.80078819 52.84318453 119.75366753 51.97895169 C119.28889143 45.25263561 118.41178456 38.35296055 113.4375 33.5 C106.62995052 29.31073878 99.07601807 29.51676418 93 35 Z M183 35 C178.48321804 41.07429298 178.85410955 47.48900075 178.86628723 54.74142456 C178.86402167 55.7289774 178.86175612 56.71653023 178.85942191 57.73400891 C178.85308667 61.04648004 178.85391097 64.3589102 178.85473633 67.67138672 C178.85174456 70.04497328 178.84834199 72.41855935 178.84455872 74.79214478 C178.83663533 80.57238531 178.83350416 86.3526134 178.83294634 92.1328591 C178.83247091 96.83186161 178.83041482 101.53086076 178.82724571 106.22986221 C178.81844101 119.55654541 178.81382608 132.88322056 178.81457619 146.20990668 C178.81461614 146.92809353 178.8146561 147.64628038 178.81469727 148.38623047 C178.81473815 149.10529556 178.81477903 149.82436066 178.81482115 150.5652156 C178.81522762 162.21932985 178.80565727 173.8734118 178.7915589 185.52751671 C178.77719229 197.49793246 178.77028886 209.46833247 178.77115268 221.43875706 C178.77148453 228.15761945 178.76874227 234.87644796 178.75797462 241.59530258 C178.74830328 247.91374602 178.74820789 254.23211787 178.75549126 260.55056381 C178.75653827 262.86971135 178.75416732 265.18886332 178.7481308 267.50800323 C178.74042456 270.67362272 178.74504677 273.83899409 178.75276184 277.00460815 C178.74761828 277.92241715 178.74247471 278.84022615 178.73717529 279.78584754 C178.77210834 286.2716948 179.02526454 291.72145908 183.4375 296.8125 C188.05092383 300.75078863 190.59018413 301.4454588 196.4921875 301.31640625 C200.19221913 300.84957983 202.25813697 299.4743642 205 297 C209.51678196 290.92570702 209.14589045 284.51099925 209.13371277 277.25857544 C209.13597833 276.2710226 209.13824388 275.28346977 209.14057809 274.26599109 C209.14691333 270.95351996 209.14608903 267.6410898 209.14526367 264.32861328 C209.14825544 261.95502672 209.15165801 259.58144065 209.15544128 257.20785522 C209.16336467 251.42761469 209.16649584 245.6473866 209.16705366 239.8671409 C209.16752909 235.16813839 209.16958518 230.46913924 209.17275429 225.77013779 C209.18155899 212.44345459 209.18617392 199.11677944 209.18542381 185.79009332 C209.18536388 184.71281304 209.18536388 184.71281304 209.18530273 183.61376953 C209.18526185 182.89470444 209.18522097 182.17563934 209.18517885 181.4347844 C209.18477238 169.78067015 209.19434273 158.1265882 209.2084411 146.47248329 C209.22280771 134.50206754 209.22971114 122.53166753 209.22884732 110.56124294 C209.22851547 103.84238055 209.23125773 97.12355204 209.24202538 90.40469742 C209.25169672 84.08625398 209.25179211 77.76788213 209.24450874 71.44943619 C209.24346173 69.13028865 209.24583268 66.81113668 209.2518692 64.49199677 C209.25957544 61.32637728 209.25495323 58.16100591 209.24723816 54.99539185 C209.25238172 54.07758285 209.25752529 53.15977385 209.26282471 52.21415246 C209.22789166 45.7283052 208.97473546 40.27854092 204.5625 35.1875 C199.94907617 31.24921137 197.40981587 30.5545412 191.5078125 30.68359375 C187.80778087 31.15042017 185.74186303 32.5256358 183 35 Z M272 36 C269.17589866 41.90861533 268.45988033 48.06230242 268.10774231 54.52081299 C268.0480093 55.43656876 267.98827629 56.35232454 267.9267332 57.29583049 C267.73103906 60.34147189 267.55264086 63.38786924 267.37426758 66.43457031 C267.23692084 68.62846204 267.09852145 70.82228807 266.95915222 73.01605225 C266.5845478 78.96237078 266.22513747 84.90951919 265.86881089 90.85695744 C265.49243543 97.1016444 265.1032279 103.34553289 264.71574402 109.58953857 C264.06624632 120.08686254 263.42615256 130.58473316 262.79223633 141.08300781 C262.14268464 151.8400832 261.48449232 162.59658349 260.81665039 173.35253906 C260.77562062 174.01336208 260.73459086 174.67418511 260.69231776 175.35503307 C260.65135321 176.01480273 260.61038866 176.67457239 260.56818277 177.35433507 C259.84376003 189.02413875 259.12678238 200.69438724 258.41373253 212.36489105 C258.11156352 217.31021581 257.8071924 222.25539746 257.50104713 227.2004776 C257.13953578 233.04751166 256.78471077 238.8949171 256.43474007 244.74265289 C256.30632189 246.87222456 256.17580891 249.00167126 256.04288101 251.13096619 C255.63044618 257.75181184 255.27732017 264.37210355 255 271 C254.95656393 271.96133567 254.91312786 272.92267134 254.86837554 273.91313839 C254.75164658 276.77518222 254.67460291 279.63555575 254.6101532 282.49920654 C254.57290597 283.35383838 254.53565874 284.20847022 254.4972828 285.08899999 C254.42315121 291.31551008 255.91233029 294.29483798 260 299 C264.20097858 301.94476363 269.07207862 301.71265325 274 301 C277.65700956 299.5997324 280.21428413 297.64388322 281.92395383 294.06689382 C283.75399053 288.50429489 284.57412322 283.31404362 284.89225769 277.47918701 C284.9519907 276.56343124 285.01172371 275.64767546 285.0732668 274.70416951 C285.26896094 271.65852811 285.44735914 268.61213076 285.62573242 265.56542969 C285.76307916 263.37153796 285.90147855 261.17771193 286.04084778 258.98394775 C286.4154522 253.03762922 286.77486253 247.09048081 287.13118911 241.14304256 C287.50756457 234.8983556 287.8967721 228.65446711 288.28425598 222.41046143 C288.93375368 211.91313746 289.57384744 201.41526684 290.20776367 190.91699219 C290.85731536 180.1599168 291.51550768 169.40341651 292.18334961 158.64746094 C292.22437938 157.98663792 292.26540914 157.32581489 292.30768224 156.64496693 C292.34864679 155.98519727 292.38961134 155.32542761 292.43181723 154.64566493 C293.15623997 142.97586125 293.87321762 131.30561276 294.58626747 119.63510895 C294.88843648 114.68978419 295.1928076 109.74460254 295.49895287 104.7995224 C295.86046422 98.95248834 296.21528923 93.1050829 296.56525993 87.25734711 C296.69367811 85.12777544 296.82419109 82.99832874 296.95711899 80.86903381 C297.36955382 74.24818816 297.72267983 67.62789645 298 61 C298.06515411 59.5579965 298.06515411 59.5579965 298.13162446 58.08686161 C298.24835342 55.22481778 298.32539709 52.36444425 298.3898468 49.50079346 C298.42709403 48.64616162 298.46434126 47.79152978 298.5027172 46.91100001 C298.57684879 40.68448992 297.08766971 37.70516202 293 33 C286.31984619 28.31740675 277.19817472 30.12501886 272 36 Z " fill="#000000" transform="translate(62,150)"/>
<path d="M0 0 C1.17033279 -0.00852997 2.34066559 -0.01705994 3.54646301 -0.02584839 C4.81671326 -0.02494202 6.0869635 -0.02403564 7.39570618 -0.02310181 C8.75804002 -0.02909167 10.12037049 -0.03589827 11.48269653 -0.04345703 C15.17306303 -0.0610817 18.8633367 -0.06581103 22.55374122 -0.0670886 C24.86382806 -0.06851323 27.17389153 -0.07278881 29.48397255 -0.07808304 C37.55612808 -0.09657451 45.62821767 -0.10475512 53.70039368 -0.10317993 C61.20305619 -0.10198008 68.70543031 -0.12305372 76.20801991 -0.15466726 C82.66602249 -0.18090111 89.12393133 -0.1915442 95.58198673 -0.19026911 C99.43158892 -0.18976139 103.28093491 -0.19533835 107.13048363 -0.21662521 C110.75612389 -0.23612702 114.38126678 -0.23605173 118.00692558 -0.22159195 C119.95497449 -0.21853581 121.90302409 -0.23509807 123.85099792 -0.25247192 C136.72088594 -0.16131836 146.37164754 3.77405702 156.03755188 12.26742554 C163.48556861 20.1852615 169.3472185 30.22976318 169.23286438 41.32211304 C169.22641907 42.43070679 169.21997375 43.53930054 169.21333313 44.68148804 C169.19657532 45.82359741 169.1798175 46.96570679 169.16255188 48.14242554 C169.15352844 49.30773804 169.144505 50.47305054 169.13520813 51.67367554 C169.1117262 54.53847131 169.07888329 57.40284088 169.03755188 60.26742554 C170.24309723 60.25632248 171.44864258 60.24521942 172.6907196 60.23377991 C184.07781695 60.13221556 195.46482182 60.05736969 206.85227013 60.00836468 C212.70605288 59.98232323 218.5594686 59.94702429 224.41304016 59.89022827 C230.06704416 59.83571485 235.72069616 59.80596402 241.37494278 59.79303932 C243.52703514 59.78383416 245.67910925 59.76585869 247.83105087 59.73877525 C250.85651832 59.70222849 253.88054992 59.69749094 256.90620422 59.69979858 C257.78662384 59.6818222 258.66704346 59.66384583 259.57414246 59.64532471 C267.50163567 59.71032055 273.1538587 62.88425018 279.78755188 66.95492554 C286.91029088 74.2755184 289.35301565 82.05081651 289.42915344 91.99911499 C289.31128089 98.37788879 287.63643323 102.96878098 284.03755188 108.26742554 C283.48067688 109.17492554 282.92380188 110.08242554 282.35005188 111.01742554 C276.04211311 117.15487947 269.08702448 120.38785198 260.35568905 120.40443993 C259.32677112 120.40841767 259.32677112 120.40841767 258.27706698 120.41247576 C255.96161417 120.42018011 253.64621429 120.42072837 251.33074951 120.42132568 C249.66061728 120.42533957 247.99048603 120.42977767 246.32035595 120.43460524 C241.71740187 120.446585 237.11445828 120.45222245 232.51149166 120.45678639 C227.55219958 120.46273722 222.59292008 120.47434841 217.63363647 120.4850769 C205.64956982 120.50961353 193.66549899 120.52423027 181.68141493 120.53713697 C178.29726635 120.5408481 174.91311818 120.5448214 171.52897 120.54888964 C150.51991735 120.57412624 129.51086405 120.59618232 108.50179958 120.60861778 C103.63407832 120.61154755 98.76635708 120.6145092 93.89863586 120.61752319 C92.68876588 120.61826924 91.47889589 120.61901529 90.23236317 120.61978395 C70.63275696 120.63243782 51.03324147 120.66566049 31.43367767 120.70732503 C11.31705304 120.74973858 -8.79952515 120.77331219 -28.91619438 120.77853835 C-40.21329105 120.7819532 -51.51024598 120.79371721 -62.80729866 120.82664108 C-72.42854657 120.85463479 -82.0496237 120.86564388 -91.67090917 120.85444562 C-96.57952627 120.8492572 -101.48778567 120.85215784 -106.39635086 120.87691116 C-110.89286665 120.89939715 -115.38876768 120.89866885 -119.88529419 120.87970729 C-121.50920247 120.87690637 -123.13315238 120.88251103 -124.75699372 120.89752023 C-133.89244095 120.97677469 -141.1564933 120.42454793 -148.96244812 115.26742554 C-149.86994812 114.71055054 -150.77744812 114.15367554 -151.71244812 113.57992554 C-158.83518712 106.25933268 -161.27791189 98.48403456 -161.35404968 88.53573608 C-161.23617713 82.15696228 -159.56132947 77.56607009 -155.96244812 72.26742554 C-155.12713562 70.90617554 -155.12713562 70.90617554 -154.27494812 69.51742554 C-149.09443489 64.47692618 -142.24857022 60.1377378 -134.88122559 60.14717102 C-133.63815895 60.14510902 -133.63815895 60.14510902 -132.36997986 60.14300537 C-131.46439331 60.14660065 -130.55880676 60.15019592 -129.6257782 60.15390015 C-128.19134621 60.15368111 -128.19134621 60.15368111 -126.72793579 60.15345764 C-123.56259402 60.1541551 -120.39731088 60.16193973 -117.23197937 60.16976929 C-115.03908317 60.17163406 -112.84618656 60.17305768 -110.65328979 60.17405701 C-104.87797396 60.17787752 -99.10268323 60.18770386 -93.32737732 60.19876099 C-87.43555542 60.2089851 -81.54372946 60.21355677 -75.65190125 60.21859741 C-64.08873917 60.22932652 -52.52559573 60.24639738 -40.96244812 60.26742554 C-40.99386902 59.21784668 -40.99386902 59.21784668 -41.02592468 58.14706421 C-41.11007746 54.9165029 -41.16141883 51.68617328 -41.21244812 48.45492554 C-41.24596375 47.35471069 -41.27947937 46.25449585 -41.31401062 45.12094116 C-41.46429668 32.38419757 -37.34055179 22.80215237 -28.96244812 13.26742554 C-21.05913175 5.83306686 -11.0577088 0.03660117 0 0 Z M-5.77494812 34.70492554 C-12.69179034 42.80751214 -10.96244812 48.99629855 -10.96244812 60.26742554 C38.53755188 60.26742554 88.03755188 60.26742554 139.03755188 60.26742554 C139.95279435 46.84411302 139.95279435 46.84411302 134.60005188 35.45492554 C129.45424849 31.06216654 125.55570906 30.1464621 118.92771912 30.13371277 C117.92126343 30.12944778 116.91480774 30.1251828 115.87785339 30.12078857 C114.78473846 30.12124176 113.69162354 30.12169495 112.56538391 30.12216187 C111.40546936 30.11880325 110.24555481 30.11544464 109.05049133 30.11198425 C105.21543813 30.10248394 101.38042862 30.10053163 97.54536438 30.09945679 C95.55285853 30.09705586 93.56035266 30.09465319 91.56784713 30.09199637 C85.30367647 30.08386221 79.03952018 30.08141119 72.77534485 30.0821228 C66.32414602 30.08272339 59.87303085 30.07217295 53.42185318 30.05637914 C47.87348957 30.04328212 42.32515323 30.03793981 36.77677429 30.03857821 C33.46726415 30.03883256 30.15784497 30.03509017 26.84834671 30.02540016 C23.15499688 30.01559842 19.46186224 30.01847919 15.76850891 30.02450562 C14.67944244 30.01888611 13.59037598 30.0132666 12.4683075 30.00747681 C2.6087098 30.011368 2.6087098 30.011368 -5.77494812 34.70492554 Z " fill="#000000" transform="translate(191.9624481201172,-0.267425537109375)"/>
</svg>
