<?xml version="1.0" encoding="UTF-8"?>
<svg version="1.1" xmlns="http://www.w3.org/2000/svg" width="512" height="512">
<path d="M0 0 C4.5925492 2.17541804 6.82339125 4.45950899 9 9 C9.26967159 11.748077 9.3805791 14.26073218 9.34057617 17.00317383 C9.34101425 17.79394318 9.34145233 18.58471252 9.34190369 19.39944458 C9.33982069 22.00222832 9.31651314 24.60436062 9.29296875 27.20703125 C9.28737105 29.01592151 9.28310177 30.82481633 9.28010559 32.63371277 C9.26867053 37.38655227 9.23921488 42.13911521 9.20599365 46.8918457 C9.17526389 51.74491637 9.16159404 56.59803188 9.14648438 61.45117188 C9.1143439 70.96756919 9.06316373 80.48376157 9 90 C10.11367447 89.99378128 11.22734894 89.98756256 12.37477112 89.9811554 C16.56714208 89.95941282 20.75950822 89.94593866 24.95191956 89.93476868 C26.75508975 89.92885302 28.55825438 89.92079262 30.36140442 89.91041565 C44.45992815 89.83140149 58.09556216 90.4810801 72 93 C72.97356445 93.17160645 73.94712891 93.34321289 74.95019531 93.52001953 C103.78299335 98.72555374 131.14298209 108.23503401 157 122 C158.05018311 122.55010742 158.05018311 122.55010742 159.12158203 123.11132812 C192.48868231 140.6596763 223.95033344 166.02666934 247 196 C248.14082031 197.41539062 248.14082031 197.41539062 249.3046875 198.859375 C281.64947015 239.57453272 301.87393043 289.43750813 308 341 C308.0935376 341.74233887 308.1870752 342.48467773 308.28344727 343.24951172 C309.08509527 350.23561069 309.25296112 357.21378082 309.29516602 364.2421875 C309.30678475 365.58799673 309.32738931 366.93375647 309.35668945 368.27929688 C309.39945279 370.25357748 309.41294569 372.22842304 309.42578125 374.203125 C309.44036377 375.36489258 309.45494629 376.52666016 309.4699707 377.72363281 C308.76337163 382.64963778 306.51699526 385.82177544 302.62109375 388.84765625 C299.58949472 390.1804755 297.36771681 390.43324618 294.0625 390.4375 C292.56396484 390.46650391 292.56396484 390.46650391 291.03515625 390.49609375 C287.18452976 389.86671207 284.68303966 388.7838764 282 386 C279.64529912 382.43850067 277.73959053 378.68087124 275.8125 374.875 C274.66902081 372.6933922 273.5218454 370.513718 272.37109375 368.3359375 C271.80374512 367.25924805 271.23639648 366.18255859 270.65185547 365.07324219 C261.12248061 347.34404167 249.49868309 330.74588998 237 315 C236.27296875 314.07832031 235.5459375 313.15664063 234.796875 312.20703125 C222.40237 296.75848455 208.58566295 282.23685159 193 270 C191.93106658 269.13041001 190.86340867 268.25925032 189.796875 267.38671875 C156.34484108 240.23780323 115.44498771 222.1840472 73 215 C72.11940918 214.84982422 71.23881836 214.69964844 70.33154297 214.54492188 C56.34859457 212.27176897 42.31303239 211.58046193 28.18359375 210.91796875 C26.31602509 210.82790548 24.44847122 210.73753496 22.58093262 210.64685059 C18.05411757 210.42769604 13.52712351 210.21268339 9 210 C9.00888245 211.0014505 9.01776489 212.002901 9.0269165 213.03469849 C9.10806517 222.48053027 9.16799554 231.92629116 9.20724869 241.37239265 C9.22810775 246.22855299 9.2563947 251.08443152 9.30175781 255.94042969 C9.34527551 260.62831256 9.36914976 265.31592468 9.37950897 270.00399399 C9.38688971 271.79095598 9.40130271 273.57790344 9.42292023 275.36474991 C9.45203345 277.87125718 9.45595277 280.37665115 9.45410156 282.88330078 C9.46848267 283.61913895 9.48286377 284.35497711 9.49768066 285.1131134 C9.45704245 290.21108784 8.20047524 293.07191823 5 297 C0.63893562 300.26028125 -2.99253321 301.01705051 -8.37109375 300.81640625 C-15.81609473 299.14148138 -21.76355577 294.37633503 -27.95898438 290.09228516 C-31.28877166 287.80131879 -34.64740759 285.55808171 -38.015625 283.32421875 C-42.79439506 280.15254396 -47.56814154 276.97366829 -52.33465576 273.78359985 C-63.33240321 266.42510318 -74.38242081 259.14697086 -85.4375 251.875 C-96.84032699 244.37420268 -108.23284168 236.85913482 -119.58203125 229.27734375 C-120.52521713 228.64737488 -121.46840302 228.01740601 -122.44017029 227.36834717 C-126.9280912 224.3696533 -131.41371789 221.36759716 -135.89624023 218.36083984 C-143.86897083 213.02183057 -151.88053955 207.78049188 -160.03965759 202.73074341 C-167.32095982 198.20957422 -174.45836385 193.4782755 -181.56860352 188.69360352 C-183.0847297 187.67597949 -184.60402984 186.66307076 -186.1262207 185.65454102 C-188.36829978 184.16892323 -190.60101805 182.67013774 -192.83203125 181.16796875 C-193.51006302 180.7220488 -194.18809479 180.27612885 -194.88667297 179.81669617 C-198.59343443 177.29483512 -201.08211177 175.19158377 -203 171 C-203.78506051 165.74504545 -203.71894526 160.74600992 -201.6875 155.8125 C-197.48820814 151.41789224 -192.77284483 147.75054035 -188 144 C-186.2880758 142.60857303 -184.57973531 141.21272534 -182.875 139.8125 C-181.9675 139.07 -181.06 138.3275 -180.125 137.5625 C-174.90015928 133.28141323 -169.68909464 128.98355561 -164.4765625 124.6875 C-161.51533558 122.24716983 -158.55170895 119.80980482 -155.5859375 117.375 C-149.04207805 111.99987018 -142.5127472 106.61232293 -136.0625 101.125 C-131.71364726 97.4258395 -127.30499057 93.81754906 -122.83203125 90.26953125 C-116.91430621 85.52718884 -111.08591133 80.67438043 -105.23779297 75.84667969 C-101.66088205 72.8949282 -98.08031669 69.94761867 -94.5 67 C-93.08331453 65.83335617 -91.66664789 64.66668947 -90.25 63.5 C-81.75 56.5 -81.75 56.5 -79.62402344 54.74926758 C-78.21051797 53.58515646 -76.79710616 52.4209316 -75.38378906 51.2565918 C-71.79452429 48.29987496 -68.20354178 45.34528796 -64.609375 42.39453125 C-58.05783445 37.012726 -51.52063598 31.61874667 -45.0625 26.125 C-40.68559555 22.40376674 -36.26139434 18.75469354 -31.7578125 15.1875 C-29.53663785 13.42566175 -27.32473801 11.65380696 -25.1171875 9.875 C-24.43769043 9.32835693 -23.75819336 8.78171387 -23.05810547 8.21850586 C-21.70456777 7.12941378 -20.3519998 6.03911522 -19.00048828 4.94750977 C-12.51104203 -0.26381462 -8.28253643 -0.77953284 0 0 Z " fill="#000000" transform="translate(203,61)"/>
</svg>
